<?xml version="1.0" ?><!DOCTYPE svg  PUBLIC '-//W3C//DTD SVG 1.1//EN'  'http://www.w3.org/Graphics/SVG/1.1/DTD/svg11.dtd'><svg height="8.26772in" style="shape-rendering:geometricPrecision; text-rendering:geometricPrecision; image-rendering:optimizeQuality; fill-rule:evenodd; clip-rule:evenodd" version="1.1" viewBox="0 0 826772 826772" width="8.26772in" xml:space="preserve" xmlns="http://www.w3.org/2000/svg" xmlns:xlink="http://www.w3.org/1999/xlink"><defs><style type="text/css">
   <![CDATA[
    .fil0 {fill:#DD4B39}
    .fil1 {fill:#2E373C;fill-rule:nonzero}
    .fil2 {fill:white;fill-rule:nonzero}
   ]]>
  </style></defs><g id="Layer_x0020_1"><polygon class="fil0" points="0,0 826772,0 826772,826772 0,826772 "/><g id="_2016258664336"><g><path class="fil1" d="M601157 535173c-14639,-11560 -30303,-21935 -45717,-32536 -30735,-21161 -58825,-22801 -81764,11240 -12882,19107 -30895,19951 -49752,11562 -51963,-23100 -92094,-58692 -115579,-110473 -10397,-22914 -10260,-43436 14069,-59646 12882,-8575 25856,-18697 24807,-37441 -1345,-24419 -61814,-106003 -85685,-114598 -9874,-3558 -19724,-3330 -29780,-22 -55976,18446 -79165,63591 -56957,117037 66237,159448 182842,270466 343317,338208 9143,3854 19311,5405 24465,6795 36526,365 79347,-34156 91705,-68402 11925,-32925 -13247,-46013 -33129,-61724z"/><path class="fil1" d="M421212 219652c117334,17695 171441,72393 186374,188247 1392,10693 -2690,26813 12884,27109 16280,298 12358,-15549 12494,-26267 1369,-109103 -95673,-210270 -208379,-213987 -8504,1208 -26107,-5747 -27201,12928 -706,12586 14091,10510 23828,11970z"/><path class="fil1" d="M444148 251413c-11286,-1322 -26174,-6543 -28821,8803 -2757,16120 13841,14479 24512,16826 72463,15869 97703,41726 109628,112205 1733,10283 -1710,26267 16098,23621 13202,-1961 8436,-15687 9531,-23690 593,-67650 -58532,-129235 -130948,-137765z"/><path class="fil1" d="M450807 306752c-7525,183 -14935,982 -17695,8870 -4149,11788 4583,14615 13498,16008 29733,4672 45375,21864 48340,50913 798,7889 5905,14275 13680,13385 10761,-1254 11743,-10648 11424,-19587 524,-32651 -37120,-70387 -69247,-69589z"/></g><g><path class="fil2" d="M591740 545634c-14640,-11560 -30304,-21935 -45717,-32536 -30735,-21161 -58825,-22801 -81764,11240 -12882,19107 -30895,19951 -49752,11562 -51963,-23100 -92094,-58692 -115579,-110473 -10397,-22914 -10260,-43436 14069,-59646 12882,-8575 25856,-18697 24807,-37441 -1345,-24419 -61815,-106003 -85685,-114597 -9875,-3559 -19724,-3331 -29781,-23 -55975,18446 -79164,63591 -56957,117037 66238,159448 182843,270466 343318,338208 9143,3854 19311,5405 24464,6795 36527,365 79348,-34156 91706,-68402 11925,-32925 -13247,-46013 -33129,-61724z"/><path class="fil2" d="M411794 230113c117335,17695 171441,72393 186375,188247 1392,10693 -2690,26813 12884,27109 16280,298 12358,-15549 12494,-26267 1369,-109103 -95673,-210270 -208379,-213986 -8505,1207 -26107,-5747 -27201,12927 -707,12586 14091,10510 23827,11970z"/><path class="fil2" d="M434731 261874c-11287,-1322 -26174,-6543 -28821,8803 -2758,16120 13841,14479 24511,16826 72463,15869 97704,41726 109629,112205 1733,10283 -1711,26267 16097,23621 13203,-1961 8437,-15687 9531,-23690 594,-67650 -58531,-129235 -130947,-137765z"/><path class="fil2" d="M441390 317213c-7525,183 -14935,982 -17695,8870 -4150,11788 4583,14615 13498,16008 29733,4672 45374,21864 48339,50913 799,7889 5905,14275 13681,13385 10761,-1254 11743,-10648 11424,-19587 524,-32651 -37120,-70387 -69247,-69589z"/></g></g></g></svg>